<svg xmlns="http://www.w3.org/2000/svg" viewBox="0 0 1000 666" width="1000" height="666">
  <path d="M633,61L634,62Z M635,61L636,62Z M637,61L638,62Z M639,61L640,62Z M641,61L642,62Z M643,61L644,62Z M621,62L622,63Z M623,62L624,63Z M625,62L626,63Z M627,62L628,63Z M629,62L630,63Z M631,62L632,63Z M645,62L646,63Z M647,62L648,63Z M649,62L650,63Z M651,62L652,63Z M653,62L654,63Z M655,62L656,63Z M657,62L658,63Z M614,63L615,64Z M616,63L617,64Z M618,63L619,64Z M620,63L621,64Z M659,63L660,64Z M661,63L662,64Z M663,63L664,64Z M665,63L666,64Z M608,64L609,65Z M610,64L611,65Z M612,64L613,65Z M667,64L668,65Z M669,64L670,65Z M671,64L672,65Z M673,64L706,73L711,69L728,69L726,79L746,90L747,103L745,104L722,91L718,94L635,282L689,306L718,322L744,342L759,359L773,384L781,415L782,450L774,483L757,514L738,535L707,557L667,573L631,579L593,578L550,570L514,556L487,613L483,613L481,610L361,330L288,330L286,332L286,601L227,601L226,71L228,69L495,69L495,81L443,81L442,83L476,101L497,121L506,133L518,115L532,100L549,87L574,74L591,68L621,62L644,61L672,64Z M673,65L674,66Z M603,66L604,67Z M678,66L679,67Z M599,67L600,68Z M683,67L684,68Z M595,68L596,69Z M688,68L689,69Z M591,69L592,70Z M692,69L693,70Z M228,70L229,71Z M495,70L496,71Z M588,70L589,71Z M696,70L697,71Z M711,70L712,71Z M227,71L228,72Z M585,71L586,72Z M699,71L700,72Z M582,72L583,73Z M703,72L704,73Z M710,72L711,73Z M579,73L580,74Z M705,73L706,74Z M709,73L710,74Z M577,74L578,75Z M625,74L590,83L568,97L557,108L546,124L535,158L537,198L541,210L552,229L576,252L617,275L623,267L703,87L701,83L668,75L626,74Z M660,74L661,75Z M574,75L575,76Z M669,75L670,76Z M572,76L573,77Z M674,76L675,77Z M570,77L571,78Z M679,77L680,78Z M567,78L568,79Z M684,78L685,79Z M565,79L566,80Z M689,79L690,80Z M563,80L564,81Z M693,80L694,81Z M726,80L727,81Z M561,81L562,82Z M696,81L697,82Z M324,82L322,87L407,286L412,293L428,283L441,270L454,248L459,233L463,206L462,176L458,154L452,137L441,119L427,105L407,93L370,83L325,82Z M363,82L364,83Z M559,82L560,83Z M699,82L700,83Z M729,82L730,83Z M371,83L372,84Z M558,83L559,84Z M702,83L703,84Z M731,83L732,84Z M377,84L378,85Z M442,84L443,85Z M556,84L557,85Z M733,84L734,85Z M382,85L383,86Z M554,85L555,86Z M735,85L736,86Z M387,86L388,87Z M446,86L447,87Z M553,86L554,87Z M737,86L738,87Z M391,87L392,88Z M448,87L449,88Z M551,87L552,88Z M739,87L740,88Z M322,88L323,89Z M394,88L395,89Z M450,88L451,89Z M549,88L550,89Z M703,88L704,89Z M741,88L742,89Z M397,89L398,90Z M453,89L454,90Z M548,89L549,90Z M743,89L744,90Z M323,90L324,91Z M400,90L401,91Z M455,90L456,91Z M546,90L547,91Z M702,90L703,91Z M745,90L746,91Z M403,91L404,92Z M457,91L458,92Z M545,91L546,92Z M723,91L724,92Z M324,92L325,93Z M405,92L406,93Z M459,92L460,93Z M543,92L544,93Z M701,92L702,93Z M725,92L726,93Z M408,93L409,94Z M461,93L462,94Z M542,93L543,94Z M727,93L728,94Z M410,94L411,95Z M463,94L464,95Z M541,94L542,95Z M729,94L730,95Z M325,95L326,96Z M412,95L413,96Z M465,95L466,96Z M540,95L541,96Z M700,95L701,96Z M731,95L732,96Z M414,96L415,97Z M538,96L539,97Z M733,96L734,97Z M326,97L327,98Z M416,97L417,98Z M468,97L469,98Z M537,97L538,98Z M699,97L700,98Z M735,97L736,98Z M536,98L537,99Z M737,98L738,99Z M327,99L328,100Z M419,99L420,100Z M471,99L472,100Z M535,99L536,100Z M698,99L699,100Z M739,99L740,100Z M421,100L422,101Z M534,100L535,101Z M474,101L475,102Z M532,101L533,102Z M697,101L698,102Z M742,101L743,102Z M328,102L329,103Z M424,102L425,103Z M476,102L477,103Z M531,102L532,103Z M744,102L745,103Z M746,102L747,103Z M530,103L531,104Z M329,104L330,105Z M426,104L427,105Z M478,104L479,105Z M529,104L530,105Z M696,104L697,105Z M428,105L429,106Z M528,105L529,106Z M330,106L331,107Z M481,106L482,107Z M527,106L528,107Z M695,106L696,107Z M430,107L431,108Z M526,107L527,108Z M483,108L484,109Z M525,108L526,109Z M694,108L695,109Z M331,109L332,110Z M432,109L433,110Z M485,110L486,111Z M524,110L525,111Z M693,110L694,111Z M332,111L333,112Z M434,111L435,112Z M523,111L524,112Z M487,112L488,113Z M522,112L523,113Z M333,113L334,114Z M436,113L437,114Z M521,113L522,114Z M692,113L693,114Z M489,114L490,115Z M520,114L521,115Z M438,115L439,116Z M519,115L520,116Z M691,115L692,116Z M334,116L335,117Z M491,116L492,117Z M440,117L441,118Z M518,117L519,118Z M690,117L691,118Z M335,118L336,119Z M493,118L494,119Z M517,118L518,119Z M516,119L517,120Z M689,119L690,120Z M336,120L337,121Z M442,120L443,121Z M495,120L496,121Z M515,121L516,122Z M444,122L445,123Z M514,122L515,123Z M688,122L689,123Z M337,123L338,124Z M497,123L498,124Z M445,124L446,125Z M513,124L514,125Z M687,124L688,125Z M338,125L339,126Z M499,125L500,126Z M512,125L513,126Z M686,126L687,127Z M339,127L340,128Z M447,127L448,128Z M500,127L501,128Z M511,127L512,128Z M510,128L511,129Z M685,128L686,129Z M448,129L449,130Z M340,130L341,131Z M502,130L503,131Z M509,130L510,131Z M684,131L685,132Z M341,132L342,133Z M450,132L451,133Z M504,132L505,133Z M508,132L509,133Z M507,133L508,134Z M683,133L684,134Z M342,134L343,135Z M451,134L452,135Z M682,135L683,136Z M452,136L453,137Z M343,137L344,138Z M681,137L682,138Z M344,139L345,140Z M453,139L454,140Z M680,140L681,141Z M454,141L455,142Z M345,142L346,143Z M679,142L680,143Z M346,144L347,145Z M455,144L456,145Z M678,144L679,145Z M347,146L348,147Z M456,146L457,147Z M677,146L678,147Z M676,148L677,149Z M348,149L349,150Z M457,150L458,151Z M349,151L350,152Z M675,151L676,152Z M350,153L351,154Z M458,153L459,154Z M674,153L675,154Z M673,155L674,156Z M351,156L352,157Z M459,157L460,158Z M672,157L673,158Z M352,158L353,159Z M353,160L354,161Z M671,160L672,161Z M286,161L286,309L288,311L340,311L352,308L292,166L289,160L286,160Z M290,161L291,162Z M460,162L461,163Z M670,162L671,163Z M291,163L292,164Z M354,163L355,164Z M669,164L670,165Z M292,165L293,166Z M355,165L356,166Z M668,166L669,167Z M356,167L357,168Z M461,167L462,168Z M293,168L294,169Z M667,169L668,170Z M294,170L295,171Z M357,170L358,171Z M666,171L667,172Z M295,172L296,173Z M358,172L359,173Z M665,173L666,174Z M359,174L360,175Z M296,175L297,176Z M462,175L463,176Z M664,175L665,176Z M297,177L298,178Z M360,177L361,178Z M663,178L664,179Z M298,179L299,180Z M361,179L362,180Z M662,180L663,181Z M362,181L363,182Z M299,182L300,183Z M661,182L662,183Z M300,184L301,185Z M363,184L364,185Z M660,184L661,185Z M301,186L302,187Z M364,186L365,187Z M659,187L660,188Z M365,188L366,189Z M535,188L536,189Z M302,189L303,190Z M463,189L464,190Z M658,189L659,190Z M303,191L304,192Z M366,191L367,192Z M657,191L658,192Z M304,193L305,194Z M367,193L368,194Z M656,193L657,194Z M536,194L537,195Z M368,195L369,196Z M305,196L306,197Z M655,196L656,197Z M306,198L307,199Z M369,198L370,199Z M654,198L655,199Z M537,199L538,200Z M370,200L371,201Z M653,200L654,201Z M307,201L308,202Z M371,202L372,203Z M538,202L539,203Z M652,202L653,203Z M308,203L309,204Z M309,205L310,206Z M372,205L373,206Z M539,205L540,206Z M651,205L652,206Z M373,207L374,208Z M463,207L464,208Z M650,207L651,208Z M310,208L311,209Z M540,208L541,209Z M374,209L375,210Z M649,209L650,210Z M311,210L312,211Z M541,211L542,212Z M648,211L649,212Z M312,212L313,213Z M375,212L376,213Z M542,213L543,214Z M376,214L377,215Z M647,214L648,215Z M313,215L314,216Z M543,215L544,216Z M377,216L378,217Z M646,216L647,217Z M314,217L315,218Z M544,217L545,218Z M462,218L463,219Z M645,218L646,219Z M315,219L316,220Z M378,219L379,220Z M545,219L546,220Z M644,220L645,221Z M379,221L380,222Z M546,221L547,222Z M316,222L317,223Z M380,223L381,224Z M643,223L644,224Z M317,224L318,225Z M548,224L549,225Z M461,225L462,226Z M642,225L643,226Z M318,226L319,227Z M381,226L382,227Z M550,227L551,228Z M641,227L642,228Z M382,228L383,229Z M319,229L320,230Z M640,229L641,230Z M383,230L384,231Z M460,230L461,231Z M552,230L553,231Z M320,231L321,232Z M554,232L555,233Z M639,232L640,233Z M321,233L322,234Z M384,233L385,234Z M459,234L460,235Z M638,234L639,235Z M385,235L386,236Z M556,235L557,236Z M322,236L323,237Z M637,236L638,237Z M386,237L387,238Z M458,237L459,238Z M558,237L559,238Z M323,238L324,239Z M636,238L637,239Z M560,239L561,240Z M324,240L325,241Z M387,240L388,241Z M457,241L458,242Z M562,241L563,242Z M635,241L636,242Z M388,242L389,243Z M325,243L326,244Z M564,243L565,244Z M634,243L635,244Z M389,244L390,245Z M456,244L457,245Z M326,245L327,246Z M567,245L568,246Z M633,245L634,246Z M455,246L456,247Z M327,247L328,248Z M390,247L391,248Z M569,247L570,248Z M632,247L633,248Z M391,249L392,250Z M454,249L455,250Z M571,249L572,250Z M328,250L329,251Z M573,250L574,251Z M631,250L632,251Z M392,251L393,252Z M453,251L454,252Z M329,252L330,253Z M575,252L576,253Z M630,252L631,253Z M452,253L453,254Z M503,253L488,272L469,288L444,302L421,310L419,314L422,317L473,318L472,330L429,330L428,335L508,520L514,512L596,325L556,305L537,292L519,275L504,253Z M505,253L506,254Z M577,253L578,254Z M330,254L331,255Z M393,254L394,255Z M629,254L630,255Z M451,255L452,256Z M507,255L508,256Z M580,255L581,256Z M394,256L395,257Z M628,256L629,257Z M331,257L332,258Z M450,257L451,258Z M508,257L509,258Z M583,257L584,258Z M395,258L396,259Z M332,259L333,260Z M449,259L450,260Z M509,259L510,260Z M586,259L587,260Z M627,259L628,260Z M333,261L334,262Z M396,261L397,262Z M448,261L449,262Z M510,261L511,262Z M589,261L590,262Z M626,261L627,262Z M447,262L448,263Z M591,262L592,263Z M397,263L398,264Z M625,263L626,264Z M334,264L335,265Z M446,264L447,265Z M512,264L513,265Z M594,264L595,265Z M445,265L446,266Z M596,265L597,266Z M624,265L625,266Z M335,266L336,267Z M398,266L399,267Z M598,266L599,267Z M444,267L445,268Z M514,267L515,268Z M600,267L601,268Z M336,268L337,269Z M399,268L400,269Z M443,268L444,269Z M602,268L603,269Z M623,268L624,269Z M442,269L443,270Z M516,269L517,270Z M604,269L605,270Z M400,270L401,271Z M622,270L623,271Z M337,271L338,272Z M441,271L442,272Z M517,271L518,272Z M607,271L608,272Z M440,272L441,273Z M610,272L611,273Z M621,272L622,273Z M338,273L339,274Z M401,273L402,274Z M439,273L440,274Z M519,273L520,274Z M612,273L613,274Z M438,274L439,275Z M614,274L615,275Z M620,274L621,275Z M339,275L340,276Z M402,275L403,276Z M437,275L438,276Z M520,275L521,276Z M616,275L617,276Z M619,275L620,276Z M436,276L437,277Z M403,277L404,278Z M435,277L436,278Z M522,277L523,278Z M340,278L341,279Z M434,278L435,279Z M433,279L434,280Z M524,279L525,280Z M341,280L342,281Z M404,280L405,281Z M432,280L433,281Z M431,281L432,282Z M526,281L527,282Z M342,282L343,283Z M405,282L406,283Z M430,282L431,283Z M429,283L430,284Z M528,283L529,284Z M635,283L636,284Z M406,284L407,285Z M427,284L428,285Z M343,285L344,286Z M426,285L427,286Z M530,285L531,286Z M638,285L639,286Z M425,286L426,287Z M641,286L642,287Z M344,287L345,288Z M407,287L408,288Z M423,287L424,288Z M532,287L533,288Z M643,287L644,288Z M422,288L423,289Z M534,288L535,289Z M645,288L646,289Z M345,289L346,290Z M408,289L409,290Z M420,289L421,290Z M648,289L649,290Z M419,290L420,291Z M536,290L537,291Z M650,290L651,291Z M409,291L410,292Z M417,291L418,292Z M652,291L653,292Z M346,292L347,293Z M415,292L416,293Z M539,292L540,293Z M655,292L656,293Z M411,293L412,294Z M414,293L415,294Z M657,293L658,294Z M347,294L348,295Z M541,294L542,295Z M659,294L660,295Z M543,295L544,296Z M662,295L663,296Z M348,296L349,297Z M664,296L665,297Z M545,297L546,298Z M666,297L667,298Z M547,298L548,299Z M669,298L670,299Z M349,299L350,300Z M671,299L672,300Z M550,300L551,301Z M673,300L674,301Z M350,301L351,302Z M552,301L553,302Z M676,301L677,302Z M678,302L679,303Z M351,303L352,304Z M555,303L556,304Z M680,303L681,304Z M682,304L683,305Z M558,305L559,306Z M684,305L685,306Z M352,306L353,307Z M560,306L561,307Z M686,306L687,307Z M562,307L563,308Z M689,307L690,308Z M564,308L565,309Z M691,308L692,309Z M352,309L353,310Z M566,309L567,310Z M693,309L694,310Z M286,310L287,311Z M351,310L352,311Z M341,311L342,312Z M569,311L570,312Z M696,311L697,312Z M571,312L572,313Z M698,312L699,313Z M573,313L574,314Z M700,313L701,314Z M575,314L576,315Z M702,314L703,315Z M419,315L420,316Z M577,315L578,316Z M704,315L705,316Z M579,316L580,317Z M421,317L422,318Z M581,317L582,318Z M707,317L708,318Z M472,318L473,319Z M584,318L585,319Z M709,318L710,319Z M586,319L587,320Z M711,319L712,320Z M588,320L589,321Z M713,320L714,321Z M590,321L591,322Z M593,322L594,323Z M716,322L717,323Z M595,323L596,324Z M718,323L719,324Z M721,325L722,326Z M723,327L724,328Z M596,328L597,329Z M725,328L726,329Z M362,330L363,331Z M728,330L729,331Z M595,331L596,332Z M614,332L610,336L519,541L522,546L542,555L565,562L595,567L638,567L650,565L675,557L696,545L710,533L724,515L734,493L739,469L739,447L736,427L728,406L717,390L698,372L676,358L615,332Z M617,332L618,333Z M730,332L731,333Z M594,333L595,334Z M620,333L621,334Z M732,333L733,334Z M364,334L365,335Z M622,334L623,335Z M593,335L594,336Z M625,335L626,336Z M734,335L735,336Z M365,336L366,337Z M428,336L429,337Z M627,336L628,337Z M736,336L737,337Z M592,337L593,338Z M630,337L631,338Z M429,338L430,339Z M632,338L633,339Z M738,338L739,339Z M366,339L367,340Z M635,339L636,340Z M430,340L431,341Z M591,340L592,341Z M637,340L638,341Z M740,340L741,341Z M367,341L368,342Z M640,341L641,342Z M590,342L591,343Z M642,342L643,343Z M742,342L743,343Z M368,343L369,344Z M431,343L432,344Z M645,343L646,344Z M744,343L745,344Z M589,344L590,345Z M647,344L648,345Z M432,345L433,346Z M649,345L650,346Z M746,345L747,346Z M369,346L370,347Z M588,346L589,347Z M652,346L653,347Z M433,347L434,348Z M654,347L655,348Z M748,347L749,348Z M370,348L371,349Z M656,348L657,349Z M587,349L588,350Z M658,349L659,350Z M371,350L372,351Z M434,350L435,351Z M660,350L661,351Z M750,350L751,351Z M586,351L587,352Z M662,351L663,352Z M435,352L436,353Z M665,352L666,353Z M752,352L753,353Z M372,353L373,354Z M585,353L586,354Z M667,353L668,354Z M436,354L437,355Z M669,354L670,355Z M754,354L755,355Z M373,355L374,356Z M584,355L585,356Z M671,355L672,356Z M673,356L674,357Z M374,357L375,358Z M437,357L438,358Z M675,357L676,358Z M756,357L757,358Z M583,358L584,359Z M677,358L678,359Z M438,359L439,360Z M758,359L759,360Z M375,360L376,361Z M582,360L583,361Z M680,360L681,361Z M439,361L440,362Z M682,361L683,362Z M759,361L760,362Z M376,362L377,363Z M581,362L582,363Z M684,362L685,363Z M377,364L378,365Z M440,364L441,365Z M580,364L581,365Z M687,364L688,365Z M761,364L762,365Z M689,365L690,366Z M441,366L442,367Z M378,367L379,368Z M579,367L580,368Z M692,367L693,368Z M763,367L764,368Z M442,368L443,369Z M379,369L380,370Z M578,369L579,370Z M694,369L695,370Z M696,370L697,371Z M765,370L766,371Z M380,371L381,372Z M443,371L444,372Z M577,371L578,372Z M699,372L700,373Z M766,372L767,373Z M444,373L445,374Z M576,373L577,374Z M381,374L382,375Z M701,374L702,375Z M767,374L768,375Z M445,375L446,376Z M382,376L383,377Z M575,376L576,377Z M704,376L705,377Z M769,377L770,378Z M383,378L384,379Z M446,378L447,379Z M574,378L575,379Z M706,378L707,379Z M447,380L448,381Z M573,380L574,381Z M708,380L709,381Z M770,380L771,381Z M384,381L385,382Z M448,382L449,383Z M572,382L573,383Z M710,382L711,383Z M771,382L772,383Z M385,383L386,384Z M712,384L713,385Z M772,384L773,385Z M386,385L387,386Z M449,385L450,386Z M571,385L572,386Z M714,386L715,387Z M450,387L451,388Z M570,387L571,388Z M773,387L774,388Z M387,388L388,389Z M716,388L717,389Z M569,389L570,390Z M388,390L389,391Z M451,390L452,391Z M774,390L775,391Z M568,391L569,392Z M718,391L719,392Z M389,392L390,393Z M452,392L453,393Z M720,393L721,394Z M775,393L776,394Z M453,394L454,395Z M567,394L568,395Z M390,395L391,396Z M566,396L567,397Z M722,396L723,397Z M776,396L777,397Z M391,397L392,398Z M454,397L455,398Z M565,398L566,399Z M392,399L393,400Z M455,399L456,400Z M724,399L725,400Z M564,400L565,401Z M777,400L778,401Z M456,401L457,402Z M393,402L394,403Z M726,402L727,403Z M563,403L564,404Z M394,404L395,405Z M457,404L458,405Z M727,404L728,405Z M778,404L779,405Z M562,405L563,406Z M395,406L396,407Z M458,406L459,407Z M561,407L562,408Z M729,407L730,408Z M459,408L460,409Z M396,409L397,410Z M560,409L561,410Z M730,409L731,410Z M779,409L780,410Z M397,411L398,412Z M460,411L461,412Z M559,411L560,412Z M731,412L732,413Z M398,413L399,414Z M461,413L462,414Z M558,414L559,415Z M732,414L733,415Z M462,415L463,416Z M780,415L781,416Z M399,416L400,417Z M557,416L558,417Z M733,416L734,417Z M400,418L401,419Z M463,418L464,419Z M556,418L557,419Z M734,419L735,420Z M401,420L402,421Z M464,420L465,421Z M555,420L556,421Z M465,422L466,423Z M402,423L403,424Z M554,423L555,424Z M735,423L736,424Z M403,425L404,426Z M466,425L467,426Z M553,425L554,426Z M736,426L737,427Z M781,426L782,427Z M404,427L405,428Z M467,427L468,428Z M552,427L553,428Z M468,429L469,430Z M551,429L552,430Z M405,430L406,431Z M737,431L738,432Z M406,432L407,433Z M469,432L470,433Z M550,432L551,433Z M407,434L408,435Z M470,434L471,435Z M549,434L550,435Z M471,436L472,437Z M548,436L549,437Z M408,437L409,438Z M738,437L739,438Z M547,438L548,439Z M409,439L410,440Z M472,439L473,440Z M410,441L411,442Z M473,441L474,442Z M546,441L547,442Z M474,443L475,444Z M545,443L546,444Z M411,444L412,445Z M544,445L545,446Z M412,446L413,447Z M475,446L476,447Z M739,446L740,447Z M543,447L544,448Z M413,448L414,449Z M476,448L477,449Z M477,450L478,451Z M542,450L543,451Z M414,451L415,452Z M541,452L542,453Z M415,453L416,454Z M478,453L479,454Z M540,454L541,455Z M416,455L417,456Z M479,455L480,456Z M539,456L540,457Z M480,457L481,458Z M417,458L418,459Z M538,459L539,460Z M418,460L419,461Z M481,460L482,461Z M537,461L538,462Z M419,462L420,463Z M482,462L483,463Z M536,463L537,464Z M483,464L484,465Z M420,465L421,466Z M535,465L536,466Z M421,467L422,468Z M484,467L485,468Z M534,468L535,469Z M422,469L423,470Z M485,469L486,470Z M533,470L534,471Z M739,470L740,471Z M486,471L487,472Z M423,472L424,473Z M532,472L533,473Z M424,474L425,475Z M487,474L488,475Z M531,474L532,475Z M488,476L489,477Z M425,477L426,478Z M530,477L531,478Z M738,477L739,478Z M489,478L490,479Z M426,479L427,480Z M529,479L530,480Z M427,481L428,482Z M490,481L491,482Z M528,481L529,482Z M737,482L738,483Z M491,483L492,484Z M527,483L528,484Z M428,484L429,485Z M492,485L493,486Z M429,486L430,487Z M526,486L527,487Z M736,487L737,488Z M430,488L431,489Z M493,488L494,489Z M525,488L526,489Z M494,490L495,491Z M524,490L525,491Z M735,490L736,491Z M431,491L432,492Z M495,492L496,493Z M523,492L524,493Z M432,493L433,494Z M734,494L735,495Z M433,495L434,496Z M496,495L497,496Z M522,495L523,496Z M497,497L498,498Z M521,497L522,498Z M733,497L734,498Z M434,498L435,499Z M498,499L499,500Z M520,499L521,500Z M732,499L733,500Z M435,500L436,501Z M519,501L520,502Z M436,502L437,503Z M499,502L500,503Z M731,502L732,503Z M500,504L501,505Z M518,504L519,505Z M730,504L731,505Z M437,505L438,506Z M501,506L502,507Z M517,506L518,507Z M729,506L730,507Z M438,507L439,508Z M516,508L517,509Z M728,508L729,509Z M439,509L440,510Z M502,509L503,510Z M515,510L516,511Z M727,510L728,511Z M503,511L504,512Z M440,512L441,513Z M726,512L727,513Z M514,513L515,514Z M441,514L442,515Z M504,514L505,515Z M725,514L726,515Z M513,515L514,516Z M442,516L443,517Z M505,516L506,517Z M724,516L725,517Z M512,517L513,518Z M723,517L724,518Z M506,518L507,519Z M443,519L444,520Z M511,519L512,520Z M722,519L723,520Z M507,520L508,521Z M510,520L511,521Z M721,520L722,521Z M444,521L445,522Z M720,522L721,523Z M445,523L446,524Z M719,523L720,524Z M718,524L719,525Z M446,526L447,527Z M717,526L718,527Z M716,527L717,528Z M447,528L448,529Z M715,528L716,529Z M714,529L715,530Z M448,530L449,531Z M713,530L714,531Z M712,531L713,532Z M711,532L712,533Z M449,533L450,534Z M710,534L711,535Z M450,535L451,536Z M709,535L710,536Z M708,536L709,537Z M451,537L452,538Z M707,537L708,538Z M705,538L706,539Z M704,539L705,540Z M452,540L453,541Z M703,540L704,541Z M227,541L228,542Z M702,541L703,542Z M453,542L454,543Z M701,542L702,543Z M699,543L700,544Z M454,544L455,545Z M519,544L520,545Z M698,544L699,545Z M697,545L698,546Z M521,546L522,547Z M695,546L696,547Z M455,547L456,548Z M523,547L524,548Z M694,547L695,548Z M525,548L526,549Z M692,548L693,549Z M456,549L457,550Z M527,549L528,550Z M691,549L692,550Z M529,550L530,551Z M689,550L690,551Z M457,551L458,552Z M531,551L532,552Z M688,551L689,552Z M534,552L535,553Z M686,552L687,553Z M536,553L537,554Z M684,553L685,554Z M458,554L459,555Z M539,554L540,555Z M682,554L683,555Z M541,555L542,556Z M680,555L681,556Z M459,556L460,557Z M516,556L517,557Z M544,556L545,557Z M678,556L679,557Z M518,557L519,558Z M547,557L548,558Z M676,557L677,558Z M460,558L461,559Z M520,558L521,559Z M550,558L551,559Z M673,558L674,559Z M523,559L524,560Z M553,559L554,560Z M671,559L672,560Z M525,560L526,561Z M556,560L557,561Z M668,560L669,561Z M461,561L462,562Z M528,561L529,562Z M560,561L561,562Z M666,561L667,562Z M530,562L531,563Z M564,562L565,563Z M662,562L663,563Z M462,563L463,564Z M533,563L534,564Z M569,563L570,564Z M659,563L660,564Z M535,564L536,565Z M574,564L575,565Z M655,564L656,565Z M463,565L464,566Z M538,565L539,566Z M579,565L580,566Z M651,565L652,566Z M541,566L542,567Z M585,566L586,567Z M646,566L647,567Z M544,567L545,568Z M594,567L595,568Z M639,567L640,568Z M464,568L465,569Z M547,568L548,569Z M550,569L551,570Z M465,570L466,571Z M554,570L555,571Z M558,571L559,572Z M466,572L467,573Z M562,572L563,573Z M567,573L568,574Z M572,574L573,575Z M467,575L468,576Z M577,575L578,576Z M584,576L585,577Z M468,577L469,578Z M593,577L594,578Z M605,578L606,579Z M469,579L470,580Z M470,582L471,583Z M471,584L472,585Z M472,586L473,587Z M473,589L474,590Z M474,591L475,592Z M475,593L476,594Z M476,596L477,597Z M477,598L478,599Z M478,600L479,601Z M228,601L229,602Z M479,603L480,604Z M480,605L481,606Z M481,607L482,608Z M482,610L483,611Z M483,612L484,613Z" fill="currentColor" fill-rule="evenodd"/>
</svg>