<svg xmlns="http://www.w3.org/2000/svg" viewBox="0 0 1000 666" width="1000" height="666">
  <path d="M408,32L409,33Z M410,32L411,33Z M412,32L413,33Z M414,32L415,33Z M416,32L417,33Z M418,32L419,33Z M420,32L421,33Z M422,32L423,33Z M424,32L425,33Z M426,32L427,33Z M428,32L429,33Z M430,32L431,33Z M432,32L433,33Z M434,32L435,33Z M436,32L437,33Z M438,32L439,33Z M440,32L441,33Z M442,32L443,33Z M444,32L445,33Z M446,32L447,33Z M448,32L449,33Z M450,32L451,33Z M452,32L453,33Z M454,32L455,33Z M456,32L457,33Z M458,32L459,33Z M460,32L461,33Z M462,32L463,33Z M464,32L465,33Z M466,32L467,33Z M468,32L469,33Z M470,32L471,33Z M472,32L473,33Z M474,32L475,33Z M476,32L477,33Z M478,32L479,33Z M480,32L481,33Z M482,32L483,33Z M484,32L485,33Z M486,32L487,33Z M488,32L489,33Z M490,32L491,33Z M492,32L493,33Z M494,32L495,33Z M496,32L497,33Z M498,32L499,33Z M500,32L501,33Z M502,32L503,33Z M504,32L505,33Z M506,32L507,33Z M508,32L509,33Z M510,32L511,33Z M512,32L513,33Z M514,32L515,33Z M516,32L517,33Z M518,32L519,33Z M520,32L521,33Z M522,32L523,33Z M524,32L525,33Z M526,32L527,33Z M528,32L529,33Z M530,32L531,33Z M532,32L533,33Z M534,32L535,33Z M536,32L537,33Z M538,32L539,33Z M540,32L541,33Z M542,32L543,33Z M544,32L545,33Z M546,32L547,33Z M548,32L549,33Z M550,32L551,33Z M552,32L553,33Z M554,32L555,33Z M556,32L557,33Z M558,32L559,33Z M560,32L561,33Z M562,32L563,33Z M564,32L565,33Z M566,32L567,33Z M568,32L569,33Z M570,32L571,33Z M572,32L573,33Z M574,32L575,33Z M576,32L577,33Z M578,32L579,33Z M580,32L581,33Z M582,32L583,33Z M584,32L585,33Z M586,32L587,33Z M588,32L589,33Z M590,32L591,33Z M407,33L408,34Z M592,33L592,96L539,97L537,99L537,117L540,120L578,132L612,153L642,183L661,212L677,251L685,292L686,331L678,380L666,412L656,431L638,456L623,472L606,486L585,499L568,507L537,517L537,544L539,546L592,547L591,611L408,611L407,547L460,546L462,544L462,517L429,506L395,487L361,456L340,426L322,382L314,340L314,294L323,249L343,204L360,180L376,163L412,137L436,126L462,118L462,99L460,97L407,96L408,32L591,32Z M408,96L409,97Z M461,97L462,98Z M537,118L538,119Z M462,119L463,120Z M461,120L462,121Z M539,120L540,121Z M456,121L457,122Z M543,121L544,122Z M452,122L453,123Z M547,122L548,123Z M448,123L449,124Z M551,123L552,124Z M445,124L446,125Z M554,124L555,125Z M442,125L443,126Z M557,125L558,126Z M439,126L440,127Z M560,126L561,127Z M436,127L437,128Z M563,127L564,128Z M434,128L435,129Z M566,128L567,129Z M431,129L432,130Z M569,129L570,130Z M429,130L430,131Z M571,130L572,131Z M426,131L427,132Z M573,131L574,132Z M424,132L425,133Z M575,132L576,133Z M422,133L423,134Z M578,133L579,134Z M420,134L421,135Z M580,134L581,135Z M418,135L419,136Z M582,135L583,136Z M416,136L417,137Z M584,136L585,137Z M414,137L415,138Z M412,138L413,139Z M587,138L588,139Z M411,139L412,140Z M589,139L590,140Z M409,140L410,141Z M591,140L592,141Z M407,141L408,142Z M593,141L594,142Z M405,142L406,143Z M404,143L405,144Z M596,143L597,144Z M402,144L403,145Z M401,145L402,146Z M599,145L600,146Z M399,146L400,147Z M601,146L602,147Z M398,147L399,148Z M396,148L397,149Z M603,148L604,149Z M395,149L396,150Z M605,149L606,150Z M393,150L394,151Z M392,151L393,152Z M608,151L609,152Z M391,152L392,153Z M389,153L390,154Z M610,153L611,154Z M388,154L389,155Z M612,154L613,155Z M387,155L388,156Z M386,156L387,157Z M614,156L615,157Z M384,157L385,158Z M383,158L384,159Z M617,158L618,159Z M382,159L383,160Z M381,160L382,161Z M619,160L620,161Z M380,161L381,162Z M379,162L380,163Z M621,162L622,163Z M378,163L379,164Z M376,164L377,165Z M623,164L624,165Z M375,165L376,166Z M374,166L375,167Z M625,166L626,167Z M373,167L374,168Z M372,168L373,169Z M627,168L628,169Z M371,169L372,170Z M458,169L443,175L424,187L400,210L392,221L374,258L365,301L367,352L375,382L387,407L400,425L421,445L458,466L462,464L462,171L459,169Z M461,169L462,170Z M540,169L537,171L537,464L539,466L549,463L572,450L604,418L614,402L625,377L634,333L634,301L630,276L624,255L611,227L598,209L582,193L564,180L541,169Z M542,169L543,170Z M370,170L371,171Z M544,170L545,171Z M629,170L630,171Z M369,171L370,172Z M547,171L548,172Z M368,172L369,173Z M549,172L550,173Z M631,172L632,173Z M551,173L552,174Z M367,174L368,175Z M553,174L554,175Z M633,174L634,175Z M366,175L367,176Z M555,175L556,176Z M365,176L366,177Z M557,176L558,177Z M635,176L636,177Z M364,177L365,178Z M559,177L560,178Z M363,178L364,179Z M561,178L562,179Z M362,179L363,180Z M563,179L564,180Z M637,179L638,180Z M361,180L362,181Z M565,180L566,181Z M639,181L640,182Z M360,182L361,183Z M568,182L569,183Z M359,183L360,184Z M641,183L642,184Z M358,184L359,185Z M571,184L572,185Z M357,185L358,186Z M642,185L643,186Z M574,186L575,187Z M356,187L357,188Z M644,187L645,188Z M355,188L356,189Z M576,188L577,189Z M354,189L355,190Z M578,189L579,190Z M645,189L646,190Z M353,191L354,192Z M580,191L581,192Z M647,191L648,192Z M352,192L353,193Z M583,193L584,194Z M648,193L649,194Z M351,194L352,195Z M350,195L351,196Z M585,195L586,196Z M349,196L350,197Z M650,196L651,197Z M587,197L588,198Z M348,198L349,199Z M589,199L590,200Z M652,199L653,200Z M347,200L348,201Z M346,201L347,202Z M591,201L592,202Z M654,202L655,203Z M345,203L346,204Z M593,203L594,204Z M344,204L345,205Z M655,204L656,205Z M595,205L596,206Z M343,206L344,207Z M597,207L598,208Z M657,207L658,208Z M342,208L343,209Z M658,209L659,210Z M341,210L342,211Z M599,210L600,211Z M340,211L341,212Z M659,211L660,212Z M601,212L602,213Z M339,213L340,214Z M603,214L604,215Z M661,214L662,215Z M338,215L339,216Z M604,216L605,217Z M662,216L663,217Z M337,217L338,218Z M663,218L664,219Z M336,219L337,220Z M606,219L607,220Z M664,220L665,221Z M335,221L336,222Z M608,222L609,223Z M665,222L666,223Z M334,223L335,224Z M610,225L611,226Z M666,225L667,226Z M333,226L334,227Z M667,227L668,228Z M332,228L333,229Z M612,228L613,229Z M668,229L669,230Z M331,230L332,231Z M613,230L614,231Z M614,232L615,233Z M669,232L670,233Z M330,233L331,234Z M615,234L616,235Z M670,234L671,235Z M329,235L330,236Z M616,236L617,237Z M671,237L672,238Z M328,238L329,239Z M617,238L618,239Z M672,239L673,240Z M327,240L328,241Z M618,240L619,241Z M619,242L620,243Z M673,242L674,243Z M326,243L327,244Z M620,244L621,245Z M674,245L675,246Z M325,246L326,247Z M621,247L622,248Z M675,248L676,249Z M324,249L325,250Z M622,249L623,250Z M676,251L677,252Z M623,252L624,253Z M323,253L324,254Z M624,254L625,255Z M677,255L678,256Z M322,256L323,257Z M625,257L626,258Z M678,258L679,259Z M321,260L322,261Z M626,261L627,262Z M679,263L680,264Z M320,264L321,265Z M627,264L628,265Z M628,267L629,268Z M680,267L681,268Z M319,268L320,269Z M629,271L630,272Z M681,272L682,273Z M318,273L319,274Z M630,275L631,276Z M682,277L683,278Z M317,279L318,280Z M631,280L632,281Z M683,283L684,284Z M316,285L317,286Z M632,285L633,286Z M633,292L634,293Z M684,292L685,293Z M315,294L316,295Z M634,300L635,301Z M685,304L686,305Z M314,309L315,310Z M314,322L315,323Z M634,334L635,335Z M365,336L366,337Z M315,340L316,341Z M633,343L634,344Z M366,345L367,346Z M316,348L317,349Z M632,350L633,351Z M367,353L368,354Z M631,355L632,356Z M317,356L318,357Z M368,357L369,358Z M630,360L631,361Z M318,361L319,362Z M369,362L370,363Z M629,364L630,365Z M319,365L320,366Z M370,367L371,368Z M628,368L629,369Z M320,370L321,371Z M371,370L372,371Z M627,371L628,372Z M372,373L373,374Z M626,374L627,375Z M321,375L322,376Z M373,377L374,378Z M322,378L323,379Z M625,378L626,379Z M374,380L375,381Z M624,380L625,381Z M323,382L324,383Z M375,383L376,384Z M623,383L624,384Z M324,385L325,386Z M376,385L377,386Z M622,385L623,386Z M377,387L378,388Z M325,388L326,389Z M621,388L622,389Z M378,390L379,391Z M326,391L327,392Z M620,391L621,392Z M379,392L380,393Z M619,393L620,394Z M327,394L328,395Z M380,394L381,395Z M618,395L619,396Z M381,396L382,397Z M328,397L329,398Z M617,397L618,398Z M382,398L383,399Z M616,399L617,400Z M329,400L330,401Z M383,400L384,401Z M615,401L616,402Z M330,402L331,403Z M384,402L385,403Z M614,403L615,404Z M385,404L386,405Z M613,404L614,405Z M331,405L332,406Z M386,406L387,407Z M612,406L613,407Z M332,407L333,408Z M387,408L388,409Z M611,408L612,409Z M610,409L611,410Z M333,410L334,411Z M389,411L390,412Z M609,411L610,412Z M334,412L335,413Z M608,413L609,414Z M335,414L336,415Z M391,414L392,415Z M607,414L608,415Z M336,416L337,417Z M606,416L607,417Z M393,417L394,418Z M605,417L606,418Z M337,418L338,419Z M604,419L605,420Z M338,420L339,421Z M395,420L396,421Z M603,420L604,421Z M602,421L603,422Z M339,422L340,423Z M397,422L398,423Z M601,423L602,424Z M340,424L341,425Z M399,424L400,425Z M600,424L601,425Z M599,425L600,426Z M341,426L342,427Z M400,426L401,427Z M598,427L599,428Z M402,428L403,429Z M597,428L598,429Z M343,429L344,430Z M596,429L597,430Z M404,430L405,431Z M595,430L596,431Z M344,431L345,432Z M594,431L595,432Z M406,432L407,433Z M593,432L594,433Z M592,433L593,434Z M346,434L347,435Z M408,434L409,435Z M591,434L592,435Z M590,435L591,436Z M347,436L348,437Z M410,436L411,437Z M589,436L590,437Z M588,437L589,438Z M412,438L413,439Z M587,438L588,439Z M349,439L350,440Z M586,439L587,440Z M414,440L415,441Z M585,440L586,441Z M416,441L417,442Z M584,441L585,442Z M351,442L352,443Z M583,442L584,443Z M418,443L419,444Z M582,443L583,444Z M353,444L354,445Z M580,444L581,445Z M420,445L421,446Z M579,445L580,446Z M354,446L355,447Z M422,446L423,447Z M578,446L579,447Z M577,447L578,448Z M356,448L357,449Z M425,448L426,449Z M575,448L576,449Z M574,449L575,450Z M357,450L358,451Z M427,450L428,451Z M573,450L574,451Z M429,451L430,452Z M571,451L572,452Z M359,452L360,453Z M570,452L571,453Z M432,453L433,454Z M568,453L569,454Z M361,454L362,455Z M567,454L568,455Z M435,455L436,456Z M565,455L566,456Z M362,456L363,457Z M437,456L438,457Z M563,456L564,457Z M439,457L440,458Z M562,457L563,458Z M364,458L365,459Z M560,458L561,459Z M442,459L443,460Z M558,459L559,460Z M366,460L367,461Z M444,460L445,461Z M556,460L557,461Z M446,461L447,462Z M554,461L555,462Z M368,462L369,463Z M448,462L449,463Z M552,462L553,463Z M450,463L451,464Z M550,463L551,464Z M370,464L371,465Z M452,464L453,465Z M547,464L548,465Z M454,465L455,466Z M462,465L463,466Z M537,465L538,466Z M545,465L546,466Z M372,466L373,467Z M457,466L458,467Z M461,466L462,467Z M543,466L544,467Z M374,468L375,469Z M376,470L377,471Z M378,472L379,473Z M380,474L381,475Z M383,476L384,477Z M385,478L386,479Z M387,480L388,481Z M389,481L390,482Z M391,483L392,484Z M393,484L394,485Z M395,486L396,487Z M397,487L398,488Z M400,489L401,490Z M403,491L404,492Z M406,493L407,494Z M408,494L409,495Z M411,496L412,497Z M413,497L414,498Z M415,498L416,499Z M417,499L418,500Z M419,500L420,501Z M421,501L422,502Z M423,502L424,503Z M425,503L426,504Z M427,504L428,505Z M429,505L430,506Z M432,506L433,507Z M434,507L435,508Z M437,508L438,509Z M440,509L441,510Z M443,510L444,511Z M446,511L447,512Z M449,512L450,513Z M453,513L454,514Z M457,514L458,515Z M461,515L462,516Z M462,545L463,546Z M537,545L538,546Z M461,546L462,547Z M408,547L409,548Z M591,547L592,548Z M408,610L409,611Z" fill="currentColor" fill-rule="evenodd"/>
</svg>