<svg xmlns="http://www.w3.org/2000/svg" viewBox="0 0 1000 666" width="1000" height="666">
  <path d="M357,55L358,56Z M359,55L360,56Z M361,55L362,56Z M363,55L364,56Z M365,55L366,56Z M367,55L368,56Z M369,55L370,56Z M371,55L372,56Z M373,55L374,56Z M375,55L376,56Z M377,55L378,56Z M379,55L380,56Z M381,55L382,56Z M383,55L384,56Z M385,55L386,56Z M387,55L388,56Z M389,55L390,56Z M391,55L392,56Z M393,55L394,56Z M395,55L396,56Z M397,55L398,56Z M399,55L400,56Z M401,55L402,56Z M403,55L404,56Z M405,55L406,56Z M407,55L408,56Z M409,55L410,56Z M411,55L412,56Z M413,55L414,56Z M415,55L416,56Z M417,55L418,56Z M419,55L420,56Z M421,55L422,56Z M423,55L424,56Z M425,55L426,56Z M427,55L428,56Z M429,55L430,56Z M431,55L432,56Z M433,55L434,56Z M435,55L436,56Z M437,55L438,56Z M439,55L440,56Z M441,55L442,56Z M443,55L444,56Z M445,55L446,56Z M447,55L448,56Z M449,55L450,56Z M451,55L452,56Z M453,55L454,56Z M455,55L456,56Z M457,55L458,56Z M459,55L460,56Z M461,55L462,56Z M463,55L464,56Z M465,55L466,56Z M467,55L468,56Z M469,55L470,56Z M471,55L472,56Z M473,55L474,56Z M475,55L476,56Z M477,55L478,56Z M479,55L480,56Z M481,55L482,56Z M483,55L484,56Z M485,55L486,56Z M487,55L488,56Z M489,55L490,56Z M491,55L492,56Z M493,55L494,56Z M495,55L496,56Z M497,55L498,56Z M499,55L500,56Z M501,55L502,56Z M503,55L504,56Z M505,55L506,56Z M507,55L508,56Z M509,55L510,56Z M511,55L512,56Z M513,55L514,56Z M515,55L516,56Z M517,55L518,56Z M519,55L520,56Z M521,55L522,56Z M523,55L524,56Z M525,55L526,56Z M527,55L528,56Z M529,55L530,56Z M531,55L532,56Z M533,55L534,56Z M535,55L536,56Z M537,55L538,56Z M539,55L540,56Z M541,55L542,56Z M543,55L544,56Z M545,55L546,56Z M547,55L548,56Z M549,55L550,56Z M551,55L552,56Z M553,55L554,56Z M555,55L556,56Z M557,55L558,56Z M559,55L560,56Z M561,55L562,56Z M563,55L564,56Z M353,56L354,57Z M355,56L356,57Z M565,56L566,57Z M567,56L568,57Z M569,56L570,57Z M571,56L572,57Z M573,56L574,57Z M351,57L352,58Z M575,57L576,58Z M577,57L578,58Z M579,57L580,58Z M581,57L616,68L644,85L670,111L689,143L698,170L702,196L700,244L690,279L671,313L646,340L623,356L594,368L567,373L389,373L387,375L387,559L389,561L648,562L655,565L664,575L665,590L662,597L656,603L646,607L355,607L343,600L337,588L338,71L347,59L357,55L564,55L580,57Z M581,58L582,59Z M349,59L350,60Z M586,59L587,60Z M347,60L348,61Z M590,60L591,61Z M346,61L347,62Z M594,61L595,62Z M345,62L346,63Z M597,62L598,63Z M344,63L345,64Z M600,63L601,64Z M343,64L344,65Z M603,64L604,65Z M342,65L343,66Z M606,65L607,66Z M609,66L610,67Z M341,67L342,68Z M611,67L612,68Z M613,68L614,69Z M340,69L341,70Z M616,69L617,70Z M618,70L619,71Z M339,71L340,72Z M620,71L621,72Z M622,72L623,73Z M624,73L625,74Z M338,74L339,75Z M626,74L627,75Z M629,76L630,77Z M631,77L632,78Z M634,79L635,80Z M637,81L638,82Z M640,83L641,84Z M642,85L643,86Z M644,86L645,87Z M646,88L647,89Z M649,90L650,91Z M651,92L652,93Z M653,94L654,95Z M655,96L656,97Z M657,98L658,99Z M659,100L660,101Z M390,101L387,103L387,326L389,328L411,328L413,326L413,103L411,101L391,101Z M412,101L413,102Z M449,101L447,102L449,108L592,300L595,299L595,111L590,107L565,101L450,101Z M566,101L567,102Z M573,102L574,103Z M661,102L662,103Z M578,103L579,104Z M582,104L583,105Z M663,104L664,105Z M585,105L586,106Z M447,106L448,107Z M588,106L589,107Z M665,106L666,107Z M591,107L592,108Z M593,108L594,109Z M666,108L667,109Z M449,109L450,110Z M595,110L596,111Z M668,110L669,111Z M451,111L452,112Z M452,113L453,114Z M670,113L671,114Z M454,115L455,116Z M672,115L673,116Z M455,117L456,118Z M673,117L674,118Z M457,119L458,120Z M675,120L676,121Z M458,121L459,122Z M460,123L461,124Z M677,123L678,124Z M435,125L433,126L433,326L435,328L565,328L582,323L436,125Z M437,125L438,126Z M461,125L462,126Z M617,125L615,126L616,302L627,293L638,277L650,248L654,226L654,197L647,167L634,142L618,125Z M619,125L620,126Z M679,126L680,127Z M463,127L464,128Z M621,127L622,128Z M439,128L440,129Z M680,128L681,129Z M464,129L465,130Z M623,129L624,130Z M441,130L442,131Z M681,130L682,131Z M466,131L467,132Z M625,131L626,132Z M442,132L443,133Z M467,133L468,134Z M627,133L628,134Z M683,133L684,134Z M444,134L445,135Z M469,135L470,136Z M629,135L630,136Z M684,135L685,136Z M445,136L446,137Z M470,137L471,138Z M685,137L686,138Z M447,138L448,139Z M631,138L632,139Z M686,139L687,140Z M448,140L449,141Z M472,140L473,141Z M633,140L634,141Z M687,141L688,142Z M474,142L475,143Z M450,143L451,144Z M635,143L636,144Z M688,143L689,144Z M475,144L476,145Z M452,145L453,146Z M636,145L637,146Z M477,146L478,147Z M689,146L690,147Z M453,147L454,148Z M478,148L479,149Z M638,148L639,149Z M690,148L691,149Z M455,149L456,150Z M480,150L481,151Z M639,150L640,151Z M456,151L457,152Z M691,151L692,152Z M481,152L482,153Z M458,153L459,154Z M641,153L642,154Z M483,154L484,155Z M692,154L693,155Z M459,155L460,156Z M642,155L643,156Z M484,156L485,157Z M693,156L694,157Z M461,157L462,158Z M643,157L644,158Z M486,158L487,159Z M462,159L463,160Z M644,159L645,160Z M694,159L695,160Z M487,160L488,161Z M464,161L465,162Z M645,161L646,162Z M489,162L490,163Z M465,163L466,164Z M695,163L696,164Z M490,164L491,165Z M646,164L647,165Z M467,165L468,166Z M492,166L493,167Z M647,166L648,167Z M696,166L697,167Z M468,167L469,168Z M493,168L494,169Z M470,169L471,170Z M648,169L649,170Z M495,170L496,171Z M697,170L698,171Z M471,171L472,172Z M496,172L497,173Z M649,172L650,173Z M473,174L474,175Z M498,175L499,176Z M650,175L651,176Z M698,175L699,176Z M475,176L476,177Z M500,177L501,178Z M476,178L477,179Z M501,179L502,180Z M651,179L652,180Z M478,180L479,181Z M699,180L700,181Z M503,181L504,182Z M479,182L480,183Z M504,183L505,184Z M481,184L482,185Z M652,184L653,185Z M506,185L507,186Z M482,186L483,187Z M507,187L508,188Z M700,187L701,188Z M484,188L485,189Z M509,189L510,190Z M653,189L654,190Z M485,190L486,191Z M510,191L511,192Z M487,192L488,193Z M512,193L513,194Z M488,194L489,195Z M513,195L514,196Z M490,196L491,197Z M654,196L655,197Z M701,196L702,197Z M515,197L516,198Z M491,198L492,199Z M516,199L517,200Z M493,200L494,201Z M518,201L519,202Z M494,202L495,203Z M519,203L520,204Z M496,205L497,206Z M521,206L522,207Z M498,207L499,208Z M523,208L524,209Z M499,209L500,210Z M524,210L525,211Z M501,211L502,212Z M526,212L527,213Z M502,213L503,214Z M527,214L528,215Z M504,215L505,216Z M529,216L530,217Z M505,217L506,218Z M530,218L531,219Z M507,219L508,220Z M532,220L533,221Z M508,221L509,222Z M533,222L534,223Z M510,223L511,224Z M535,224L536,225Z M511,225L512,226Z M536,226L537,227Z M513,227L514,228Z M654,227L655,228Z M538,228L539,229Z M514,229L515,230Z M539,230L540,231Z M516,231L517,232Z M541,232L542,233Z M517,233L518,234Z M542,234L543,235Z M653,235L654,236Z M519,236L520,237Z M544,237L545,238Z M521,238L522,239Z M546,239L547,240Z M522,240L523,241Z M652,240L653,241Z M547,241L548,242Z M524,242L525,243Z M549,243L550,244Z M525,244L526,245Z M550,245L551,246Z M651,245L652,246Z M527,246L528,247Z M552,247L553,248Z M528,248L529,249Z M553,249L554,250Z M650,249L651,250Z M530,250L531,251Z M555,251L556,252Z M531,252L532,253Z M649,252L650,253Z M556,253L557,254Z M533,254L534,255Z M558,255L559,256Z M648,255L649,256Z M534,256L535,257Z M559,257L560,258Z M536,258L537,259Z M647,258L648,259Z M561,259L562,260Z M537,260L538,261Z M562,261L563,262Z M646,261L647,262Z M539,262L540,263Z M564,263L565,264Z M540,264L541,265Z M645,264L646,265Z M565,265L566,266Z M644,266L645,267Z M542,267L543,268Z M567,267L568,268Z M643,268L644,269Z M544,269L545,270Z M568,269L569,270Z M642,270L643,271Z M545,271L546,272Z M570,272L571,273Z M641,272L642,273Z M547,273L548,274Z M572,274L573,275Z M640,274L641,275Z M548,275L549,276Z M573,276L574,277Z M639,276L640,277Z M550,277L551,278Z M575,278L576,279Z M638,278L639,279Z M551,279L552,280Z M637,279L638,280Z M576,280L577,281Z M553,281L554,282Z M636,281L637,282Z M578,282L579,283Z M554,283L555,284Z M635,283L636,284Z M579,284L580,285Z M634,284L635,285Z M556,285L557,286Z M581,286L582,287Z M633,286L634,287Z M557,287L558,288Z M632,287L633,288Z M582,288L583,289Z M559,289L560,290Z M631,289L632,290Z M584,290L585,291Z M630,290L631,291Z M560,291L561,292Z M629,291L630,292Z M585,292L586,293Z M628,292L629,293Z M562,293L563,294Z M587,294L588,295Z M627,294L628,295Z M563,295L564,296Z M626,295L627,296Z M588,296L589,297Z M625,296L626,297Z M624,297L625,298Z M565,298L566,299Z M590,298L591,299Z M623,298L624,299Z M622,299L623,300Z M567,300L568,301Z M591,300L592,301Z M595,300L596,301Z M621,300L622,301Z M620,301L621,302Z M568,302L569,303Z M615,302L616,303Z M619,302L620,303Z M570,304L571,305Z M571,306L572,307Z M573,308L574,309Z M574,310L575,311Z M576,312L577,313Z M577,314L578,315Z M579,316L580,317Z M580,318L581,319Z M582,320L583,321Z M582,324L583,325Z M581,325L582,326Z M577,326L578,327Z M387,327L388,328Z M413,327L414,328Z M433,327L434,328Z M572,327L573,328Z M412,328L413,329Z M566,328L567,329Z M387,560L388,561Z M642,562L643,563Z M648,563L649,564Z M651,564L652,565Z M653,565L654,566Z M655,566L656,567Z M657,568L658,569Z M659,570L660,571Z M661,572L662,573Z M662,574L663,575Z M664,578L665,579Z M338,588L339,589Z M339,591L340,592Z M340,594L341,595Z M342,597L343,598Z M344,600L345,601Z M346,601L347,602Z M348,603L349,604Z M350,604L351,605Z M352,605L353,606Z M355,606L356,607Z" fill="currentColor" fill-rule="evenodd"/>
</svg>